<svg width="116" height="91" viewBox="0 0 116 91" fill="none" xmlns="http://www.w3.org/2000/svg">
<path d="M8.7 91C6.38 91 4.35 90.1469 2.61 88.4406C0.87 86.7344 0 84.7438 0 82.4688V8.53125C0 6.25625 0.87 4.26562 2.61 2.55937C4.35 0.853124 6.38 0 8.7 0H107.3C109.62 0 111.65 0.853124 113.39 2.55937C115.13 4.26562 116 6.25625 116 8.53125V82.4688C116 84.7438 115.13 86.7344 113.39 88.4406C111.65 90.1469 109.62 91 107.3 91H8.7ZM8.7 82.4688H107.3V20.475H8.7V82.4688ZM31.9 72.2313L25.81 66.2594L40.745 51.4719L25.665 36.6844L31.9 30.7125L53.07 51.4719L31.9 72.2313ZM59.45 72.8V64.2688H91.35V72.8H59.45Z" fill="#8C4A0F"/>
</svg>
