<svg width="37" height="36" viewBox="0 0 37 36" fill="none" xmlns="http://www.w3.org/2000/svg">
<path d="M31.55 34.6L20.4 23.5L23.25 20.65L34.4 31.8C34.8 32.2 35 32.6667 35 33.2C35 33.7333 34.8 34.2 34.4 34.6C34 35 33.525 35.2 32.975 35.2C32.425 35.2 31.95 35 31.55 34.6V34.6ZM2.5 34.6C2.1 34.2 1.9 33.725 1.9 33.175C1.9 32.625 2.1 32.15 2.5 31.75L15.55 18.7L10.2 13.35L10.1 13.45C9.8 13.75 9.45 13.9 9.05 13.9C8.65 13.9 8.3 13.75 8 13.45L6.85 12.3V16.55L6.45 16.95C6.21667 17.1833 5.95 17.3 5.65 17.3C5.35 17.3 5.08333 17.1833 4.85 16.95L0.35 12.45C0.116667 12.2167 0 11.95 0 11.65C0 11.35 0.116667 11.0833 0.35 10.85L0.75 10.45H5.05L3.7 9.1C3.4 8.8 3.25 8.45 3.25 8.05C3.25 7.65 3.4 7.3 3.7 7L9.2 1.5C9.76667 0.933333 10.3833 0.55 11.05 0.35C11.7167 0.15 12.45 0.0500002 13.25 0.0500002C14.05 0.0500002 14.7833 0.191667 15.45 0.475C16.1167 0.758334 16.7333 1.18333 17.3 1.75L11.95 7.1L13.3 8.45C13.6 8.75 13.75 9.1 13.75 9.5C13.75 9.9 13.6 10.25 13.3 10.55L13.15 10.7L18.35 15.9L24.45 9.8C24.1833 9.36667 23.975 8.86667 23.825 8.3C23.675 7.73333 23.6 7.13333 23.6 6.5C23.6 4.73333 24.2417 3.20833 25.525 1.925C26.8083 0.641667 28.3333 0 30.1 0C30.6 0 31.025 0.0500001 31.375 0.15C31.725 0.25 32.0167 0.383334 32.25 0.55L28 4.8L31.75 8.55L36 4.3C36.1667 4.56667 36.3083 4.89167 36.425 5.275C36.5417 5.65833 36.6 6.1 36.6 6.6C36.6 8.36667 35.9583 9.89167 34.675 11.175C33.3917 12.4583 31.8667 13.1 30.1 13.1C29.5 13.1 28.9833 13.0583 28.55 12.975C28.1167 12.8917 27.7167 12.7667 27.35 12.6L5.3 34.65C4.9 35.05 4.43333 35.2417 3.9 35.225C3.36667 35.2083 2.9 35 2.5 34.6V34.6Z" fill="#8C4A0F"/>
</svg>
