<svg width="29" height="37" viewBox="0 0 29 37" fill="none" xmlns="http://www.w3.org/2000/svg">
<path d="M28.5608 1.35855L16.8052 6.2686C16.4042 6.43607 16.1203 6.67876 15.9534 6.99666C15.7865 7.31457 15.7724 7.63957 15.9111 7.97166L21.9638 22.4629C22.2412 23.1271 22.1832 23.8338 21.7898 24.5832C21.3965 25.3325 20.7988 25.8747 19.9969 26.2096L4.35921 32.7411L11.4429 34.9414L10.7108 36.4172L0.849543 33.4092L5.64172 24.2808L7.20606 24.7975L3.79177 31.3826L19.4294 24.8511C19.7939 24.6988 20.0596 24.4637 20.2265 24.1458C20.3934 23.8279 20.4075 23.5029 20.2688 23.1708L14.2162 8.67962C13.9387 8.01544 13.9967 7.30867 14.3901 6.55933C14.7835 5.80998 15.3994 5.26022 16.2378 4.91004L27.9934 1.77304e-06L28.5608 1.35855Z" fill="#8C4A0F"/>
</svg>
