<svg width="31" height="11" viewBox="0 0 31 11" fill="none" xmlns="http://www.w3.org/2000/svg">
<path d="M12.6583 11C12.2278 11 11.8762 10.8549 11.6035 10.5646C11.3308 10.2743 11.1944 9.9 11.1944 9.44167V7.33333H13.2611V8.8H17.7389V6.37083H12.6583C12.2565 6.37083 11.912 6.21806 11.625 5.9125C11.338 5.60695 11.1944 5.24028 11.1944 4.8125V1.55833C11.1944 1.1 11.3308 0.725695 11.6035 0.435417C11.8762 0.145139 12.2278 0 12.6583 0H18.3417C18.7722 0 19.1238 0.145139 19.3965 0.435417C19.6692 0.725695 19.8056 1.1 19.8056 1.55833V3.66667H17.7389V2.2H13.2611V4.62917H18.3417C18.7435 4.62917 19.088 4.78194 19.375 5.0875C19.662 5.39305 19.8056 5.75972 19.8056 6.1875V9.44167C19.8056 9.9 19.6692 10.2743 19.3965 10.5646C19.1238 10.8549 18.7722 11 18.3417 11H12.6583ZM23.8528 11C23.4222 11 23.0706 10.8549 22.7979 10.5646C22.5252 10.2743 22.3889 9.9 22.3889 9.44167V7.33333H24.4556V8.8H28.9333V6.37083H23.8528C23.4509 6.37083 23.1065 6.21806 22.8194 5.9125C22.5324 5.60695 22.3889 5.24028 22.3889 4.8125V1.55833C22.3889 1.1 22.5252 0.725695 22.7979 0.435417C23.0706 0.145139 23.4222 0 23.8528 0H29.5361C29.9667 0 30.3183 0.145139 30.591 0.435417C30.8637 0.725695 31 1.1 31 1.55833V3.66667H28.9333V2.2H24.4556V4.62917H29.5361C29.938 4.62917 30.2824 4.78194 30.5694 5.0875C30.8565 5.39305 31 5.75972 31 6.1875V9.44167C31 9.9 30.8637 10.2743 30.591 10.5646C30.3183 10.8549 29.9667 11 29.5361 11H23.8528ZM1.46389 11C1.03333 11 0.681713 10.8549 0.409028 10.5646C0.136343 10.2743 0 9.9 0 9.44167V1.55833C0 1.1 0.136343 0.725695 0.409028 0.435417C0.681713 0.145139 1.03333 0 1.46389 0H7.14722C7.57778 0 7.9294 0.145139 8.20208 0.435417C8.47477 0.725695 8.61111 1.1 8.61111 1.55833V3.66667H6.54444V2.2H2.06667V8.8H6.54444V7.33333H8.61111V9.44167C8.61111 9.9 8.47477 10.2743 8.20208 10.5646C7.9294 10.8549 7.57778 11 7.14722 11H1.46389Z" fill="#8C4A0F"/>
</svg>
