<svg width="30" height="30" viewBox="0 0 30 30" fill="none" xmlns="http://www.w3.org/2000/svg">
<path d="M29.4341 13.6638L16.3357 0.565735C15.5819 -0.188578 14.3584 -0.188578 13.6034 0.565735L10.8837 3.28592L14.334 6.73618C15.136 6.46549 16.0553 6.64706 16.6943 7.28611C17.3367 7.9292 17.5168 8.85629 17.2395 9.66099L20.5647 12.9865C21.3691 12.7091 22.2976 12.8883 22.9398 13.5319C23.8381 14.4295 23.8381 15.8847 22.9398 16.7828C22.7263 16.9963 22.4728 17.1658 22.1939 17.2814C21.9149 17.397 21.6159 17.4565 21.3139 17.4565C21.0119 17.4565 20.7129 17.397 20.4339 17.2814C20.1549 17.1658 19.9015 16.9963 19.688 16.7828C19.3673 16.4618 19.1486 16.0532 19.0596 15.6083C18.9706 15.1633 19.0152 14.702 19.1877 14.2824L16.0869 11.1815L16.0864 19.3428C16.3114 19.4536 16.5168 19.6003 16.6945 19.7772C17.5924 20.6748 17.5924 22.1295 16.6945 23.029C15.7965 23.9266 14.3409 23.9266 13.4437 23.029C12.5459 22.1297 12.5459 20.6751 13.4437 19.7772C13.6588 19.5617 13.9147 19.3913 14.1964 19.2757V11.0389C13.9145 10.9237 13.6585 10.7531 13.4437 10.5372C12.7636 9.85753 12.5998 8.85938 12.9487 8.02379L9.5472 4.62225L0.565895 13.6032C0.203552 13.9656 0 14.4572 0 14.9697C0 15.4822 0.203552 15.9737 0.565895 16.3362L13.6645 29.4343C14.4188 30.1886 15.6418 30.1886 16.3972 29.4343L29.4343 16.397C29.7966 16.0345 30 15.5429 30 15.0304C30 14.5178 29.7964 14.0263 29.4341 13.6638Z" fill="#8C4A0F"/>
</svg>
