<svg width="37" height="37" viewBox="0 0 37 37" fill="none" xmlns="http://www.w3.org/2000/svg">
<path fill-rule="evenodd" clip-rule="evenodd" d="M18.4998 0C8.284 0 0 8.28216 0 18.4998C0 26.6739 5.30077 33.6081 12.6513 36.0546C13.5756 36.2262 13.915 35.6533 13.915 35.1647C13.915 34.7235 13.8979 33.2662 13.8899 31.7204C8.74322 32.8395 7.65721 29.5376 7.65721 29.5376C6.81567 27.3993 5.60314 26.8307 5.60314 26.8307C3.92434 25.6825 5.72966 25.7064 5.72966 25.7064C7.58706 25.8366 8.56554 27.6128 8.56554 27.6128C10.2155 30.4404 12.8933 29.6231 13.949 29.1507C14.1151 27.955 14.5945 27.1386 15.1236 26.6766C11.0145 26.2094 6.69466 24.6229 6.69466 17.5342C6.69466 15.5145 7.41765 13.8642 8.60108 12.5683C8.40869 12.1027 7.77546 10.2211 8.77998 7.67283C8.77998 7.67283 10.3332 7.17563 13.8685 9.56914C15.3444 9.15894 16.9274 8.95276 18.4998 8.94572C20.0714 8.95276 21.6552 9.15832 23.134 9.56853C26.665 7.17502 28.2163 7.67222 28.2163 7.67222C29.2233 10.2201 28.5901 12.102 28.398 12.5677C29.5842 13.8635 30.302 15.5139 30.302 17.5336C30.302 24.6391 25.9742 26.2033 21.8547 26.6616C22.5185 27.2357 23.1098 28.3619 23.1098 30.0875C23.1098 32.5628 23.0884 34.555 23.0884 35.1644C23.0884 35.6567 23.4217 36.2335 24.3591 36.0518C31.7054 33.6029 37 26.6708 37 18.4998C36.9997 8.28277 28.7166 0.000306327 18.4998 0.000306327V0Z" fill="#181616" fill-opacity="0.8"/>
<path d="M7.00677 26.5614C6.96602 26.6533 6.82143 26.6809 6.6897 26.6181C6.5549 26.5581 6.47985 26.4328 6.52335 26.3406C6.56317 26.2456 6.70808 26.2196 6.84195 26.283C6.97675 26.3433 7.05333 26.4698 7.00646 26.5617L7.00677 26.5614ZM7.7561 27.3975C7.66818 27.4793 7.4957 27.4413 7.37868 27.3117C7.25736 27.183 7.23469 27.0105 7.32445 26.9275C7.41574 26.846 7.58301 26.8846 7.70433 27.0133C7.82503 27.1438 7.84892 27.3148 7.75641 27.3978L7.7561 27.3975ZM8.48582 28.4626C8.37248 28.5417 8.18683 28.4679 8.07225 28.3033C7.9589 28.1385 7.9589 27.9409 8.07532 27.8622C8.18958 27.7832 8.37248 27.8545 8.48889 28.0175C8.60162 28.1845 8.60162 28.3821 8.48582 28.4623V28.4626ZM9.48483 29.4923C9.38374 29.6041 9.16745 29.5741 9.00938 29.4218C8.84793 29.2726 8.8029 29.0603 8.9043 28.9488C9.00723 28.8367 9.22443 28.8679 9.38343 29.0193C9.54488 29.1682 9.59359 29.3808 9.48544 29.492L9.48483 29.4923ZM10.8634 30.09C10.8184 30.2349 10.6107 30.3007 10.4008 30.2389C10.1916 30.1754 10.0546 30.006 10.0975 29.8596C10.1404 29.7135 10.3497 29.6452 10.5607 29.711C10.77 29.7741 10.9069 29.9426 10.8634 30.09ZM12.3777 30.2006C12.3829 30.3531 12.2052 30.4793 11.9856 30.4824C11.7641 30.4876 11.5849 30.3638 11.5827 30.2137C11.5827 30.0596 11.7567 29.935 11.9779 29.9307C12.1976 29.9267 12.378 30.0492 12.378 30.2003L12.3777 30.2006ZM13.7863 29.961C13.8126 30.1096 13.6598 30.2624 13.4413 30.3032C13.2269 30.343 13.0278 30.2505 13.0002 30.1031C12.9738 29.9506 13.1295 29.7977 13.3439 29.7582C13.5627 29.7205 13.7587 29.8103 13.7863 29.9613V29.961Z" fill="#181616" fill-opacity="0.8"/>
</svg>
