<svg width="39" height="10" viewBox="0 0 39 10" fill="none" xmlns="http://www.w3.org/2000/svg">
<path d="M0 10V0H1.95V3.70833H6.3375V0H8.2875V10H6.3375V5.70833H1.95V10H0ZM12.8375 10V2H9.99375V0H17.6313V2H14.7875V10H12.8375ZM19.3375 10V1.41667C19.3375 1 19.4661 0.659723 19.7234 0.395834C19.9807 0.131945 20.3125 0 20.7188 0H28.8438C29.25 0 29.5818 0.131945 29.8391 0.395834C30.0964 0.659723 30.225 1 30.225 1.41667V10H28.275V2H25.7563V8.25H23.8062V2H21.2875V10H19.3375ZM32.5812 10V0H34.5312V8H39V10H32.5812Z" fill="#8C4A0F"/>
</svg>
