<svg width="19" height="11" viewBox="0 0 19 11" fill="none" xmlns="http://www.w3.org/2000/svg">
<path d="M1.46818 11C1.03636 11 0.683712 10.8549 0.410228 10.5646C0.136743 10.2743 0 9.9 0 9.44167V6.41667H2.07273V8.8H5.7V0H7.77273V9.44167C7.77273 9.9 7.63598 10.2743 7.3625 10.5646C7.08902 10.8549 6.73636 11 6.30454 11H1.46818ZM11.8318 11C11.4 11 11.0473 10.8549 10.7739 10.5646C10.5004 10.2743 10.3636 9.9 10.3636 9.44167V7.33333H12.4364V8.8H16.9273V6.37083H11.8318C11.4288 6.37083 11.0833 6.21806 10.7955 5.9125C10.5076 5.60695 10.3636 5.24028 10.3636 4.8125V1.55833C10.3636 1.1 10.5004 0.725695 10.7739 0.435417C11.0473 0.145139 11.4 0 11.8318 0H17.5318C17.9636 0 18.3163 0.145139 18.5898 0.435417C18.8633 0.725695 19 1.1 19 1.55833V3.66667H16.9273V2.2H12.4364V4.62917H17.5318C17.9348 4.62917 18.2803 4.78194 18.5682 5.0875C18.8561 5.39305 19 5.75972 19 6.1875V9.44167C19 9.9 18.8633 10.2743 18.5898 10.5646C18.3163 10.8549 17.9636 11 17.5318 11H11.8318Z" fill="#8C4A0F"/>
</svg>
