<svg width="27" height="48" viewBox="0 0 27 48" fill="none" xmlns="http://www.w3.org/2000/svg">
<path d="M0.534365 3.54895C0.545918 2.60256 0.83916 1.77793 1.41409 1.07505C1.98902 0.372177 2.62849 0.0250347 3.33249 0.0336288L23.5344 0.280244C24.269 0.289212 24.9075 0.651954 25.4497 1.36847C25.992 2.08499 26.2574 2.91644 26.2459 3.86283L25.7549 44.0843C25.7433 45.0307 25.4577 45.8554 24.8981 46.5585C24.3385 47.2615 23.6913 47.6086 22.9567 47.5996L2.75484 47.353C2.05083 47.3444 1.42003 46.9817 0.862431 46.265C0.304831 45.5483 0.0318074 44.7168 0.0433604 43.7704L0.534365 3.54895ZM3.28917 3.58258L2.79816 43.804L23.0001 44.0507L23.4911 3.8292L3.28917 3.58258ZM6.15801 13.0829L5.89806 34.3766L8.65287 34.4102L8.91281 13.1165L6.15801 13.0829ZM11.9672 7.41547L11.9239 10.9644L14.6787 10.9981L14.722 7.4491L11.9672 7.41547ZM11.8777 14.75L11.8344 18.2989L14.5892 18.3326L14.6325 14.7836L11.8777 14.75ZM11.7889 22.0253L11.7455 25.5743L14.5004 25.6079L14.5437 22.059L11.7889 22.0253ZM11.6993 29.3598L11.656 32.9088L14.4108 32.9424L14.4541 29.3935L11.6993 29.3598ZM11.6105 36.6352L11.5672 40.1841L14.322 40.2178L14.3653 36.6688L11.6105 36.6352ZM17.7064 7.48553L17.6631 11.0345L20.4179 11.0681L20.4612 7.51916L17.7064 7.48553ZM17.6169 14.82L17.5735 18.369L20.3283 18.4026L20.3717 14.8537L17.6169 14.82ZM17.528 22.0954L17.4847 25.6443L20.2395 25.678L20.2828 22.129L17.528 22.0954ZM17.4385 29.4299L17.3952 32.9788L20.15 33.0125L20.1933 29.4635L17.4385 29.4299ZM17.3497 36.7052L17.3064 40.2542L20.0612 40.2878L20.1045 36.7389L17.3497 36.7052ZM3.28917 3.58258L23.4911 3.8292L3.28917 3.58258Z" fill="#8C4A0F"/>
</svg>
