<svg width="37" height="30" viewBox="0 0 37 30" fill="none" xmlns="http://www.w3.org/2000/svg">
<path d="M2.775 30C2.035 30 1.3875 29.7187 0.8325 29.1562C0.2775 28.5937 0 27.9375 0 27.1875V2.8125C0 2.0625 0.2775 1.40625 0.8325 0.84375C1.3875 0.28125 2.035 0 2.775 0H34.225C34.965 0 35.6125 0.28125 36.1675 0.84375C36.7225 1.40625 37 2.0625 37 2.8125V27.1875C37 27.9375 36.7225 28.5937 36.1675 29.1562C35.6125 29.7187 34.965 30 34.225 30H2.775ZM18.5 15.8438L2.775 5.39062V27.1875H34.225V5.39062L18.5 15.8438ZM18.5 13.0312L34.04 2.8125H3.00625L18.5 13.0312ZM2.775 5.39062V2.8125V27.1875V5.39062Z" fill="black" fill-opacity="0.8"/>
</svg>
