<svg width="26" height="28" viewBox="0 0 26 28" fill="none" xmlns="http://www.w3.org/2000/svg">
<path d="M24.9724 6.20419L14.2572 0.275093C13.5815 -0.0916978 12.7016 -0.0916978 12.0205 0.275093L1.1909 6.20419C0.493514 6.58649 0 7.30502 0 8.07357V19.916C0 20.6846 0.506393 21.4033 1.20378 21.7877L4.06499 23.3364C5.43254 23.9783 5.91585 23.9783 6.53815 23.9783C8.56299 23.9783 9.71963 22.8114 9.71963 20.7763V9.08479C9.71963 8.91969 9.62948 8.67401 9.45938 8.67401H8.09305C7.92004 8.67401 7.53271 8.91969 7.53271 9.08456V20.776C7.53271 21.6782 6.67641 22.5759 5.07607 21.8134L2.11961 20.1895C2.01658 20.1362 1.94393 20.029 1.94393 19.916V8.07357C1.94393 7.96196 2.07879 7.84988 2.18254 7.79269L12.9772 1.87378C13.078 1.81937 13.2262 1.81937 13.3268 1.87378L23.9897 7.7913C24.0918 7.84988 24.0558 7.95849 24.0558 8.07357V19.916C24.0558 20.029 24.1003 20.139 23.9995 20.1934L13.287 26.1158C13.1951 26.1684 13.0812 26.1684 12.9806 26.1158L10.2331 24.553C10.1502 24.5071 10.0518 24.4907 9.97234 24.5331C9.20789 24.946 9.06695 25.0008 8.34989 25.2377C8.17348 25.2963 7.91323 25.398 8.44951 25.6844L12.0453 27.7115C12.3886 27.9004 12.778 27.9999 13.1745 28C13.5735 28 13.9642 27.9014 14.3085 27.7115L24.9721 21.7877C25.6695 21.4005 26 20.6846 26 19.916V8.07357C26 7.30502 25.6695 6.58834 24.9724 6.20419ZM16.5015 18.0394C13.6522 18.0394 13.0245 17.2904 12.8153 15.9401C12.791 15.7947 12.6615 15.6208 12.5062 15.6208H11.1137C10.9414 15.6208 10.8029 15.8199 10.8029 15.9834C10.8029 17.7123 11.7892 19.8069 16.5017 19.8069C19.9131 19.8069 21.8689 18.5438 21.8689 16.3083C21.8689 14.0918 20.2975 13.5101 16.9892 13.0929C13.6451 12.6717 13.3054 12.4589 13.3054 11.7123C13.3054 11.0968 13.5931 10.2759 16.0692 10.2759C18.2816 10.2759 19.0971 10.7284 19.4327 12.1495C19.4614 12.2831 19.5894 12.379 19.734 12.379H21.1322C21.2182 12.379 21.3003 12.3459 21.3606 12.2873C21.4189 12.2243 21.4498 12.1453 21.442 12.0606C21.2255 9.61344 19.5194 8.47301 16.069 8.47301C12.9998 8.47301 11.1688 9.70815 11.1688 11.7785C11.1688 14.0242 12.9905 14.6448 15.9368 14.9224C19.4614 15.2517 19.7355 15.7426 19.7355 16.4032C19.7355 17.5506 18.7688 18.0394 16.5015 18.0394Z" fill="#8C4A0F"/>
</svg>
