<svg width="36" height="45" viewBox="0 0 36 45" fill="none" xmlns="http://www.w3.org/2000/svg">
<path d="M9.85 41.625H26.15L28.55 30.9375H7.45L9.85 41.625ZM9.85 45C9.18333 45 8.575 44.7656 8.025 44.2969C7.475 43.8281 7.11667 43.2188 6.95 42.4688L4.35 30.9375H31.65L29.05 42.4688C28.8833 43.2188 28.525 43.8281 27.975 44.2969C27.425 44.7656 26.8167 45 26.15 45H9.85ZM3 27.5625H33V21.9375H3V27.5625ZM18 13.4437C18.1667 10.1812 19.4667 7.17188 21.9 4.41563C24.3333 1.65938 27.0167 0.1875 29.95 0C29.85 3.0375 28.7333 5.85937 26.6 8.46562C24.4667 11.0719 22.1 12.6562 19.5 13.2188V18.5625H36V27.5625C36 28.5 35.7083 29.2969 35.125 29.9531C34.5417 30.6094 33.8333 30.9375 33 30.9375H3C2.16667 30.9375 1.45833 30.6094 0.875 29.9531C0.291667 29.2969 0 28.5 0 27.5625V18.5625H16.5V13.2188C13.9 12.6562 11.5417 11.0719 9.425 8.46562C7.30833 5.85937 6.18333 3.0375 6.05 0C8.98333 0.1875 11.675 1.65 14.125 4.3875C16.575 7.125 17.8667 10.1437 18 13.4437Z" fill="#8C4A0F"/>
</svg>
