<svg width="31" height="28" viewBox="0 0 31 28" fill="none" xmlns="http://www.w3.org/2000/svg">
<path d="M15.8131 16.8284C17.3406 16.8284 18.5789 15.5901 18.5789 14.0625C18.5789 12.535 17.3406 11.2966 15.8131 11.2966C14.2855 11.2966 13.0472 12.535 13.0472 14.0625C13.0472 15.5901 14.2855 16.8284 15.8131 16.8284Z" fill="#8C4A0F"/>
<path d="M26.3185 9.50123C25.7848 9.30713 25.2267 9.11304 24.6445 8.9432C24.79 8.36091 24.9113 7.77862 25.0084 7.22059C25.5179 4.018 24.9599 1.76163 23.4071 0.888193C22.9461 0.62131 22.4366 0.5 21.8543 0.5C20.156 0.5 17.9966 1.76163 15.8131 3.87243C13.6295 1.76163 11.4701 0.5 9.7718 0.5C9.18951 0.5 8.68001 0.62131 8.21903 0.888193C6.66626 1.78589 6.10823 4.04226 6.61773 7.22059C6.71478 7.77862 6.83609 8.36091 6.98166 8.9432C6.39937 9.11304 5.84135 9.28287 5.30758 9.50123C2.27482 10.6658 0.625 12.2671 0.625 14.0625C0.625 15.8579 2.29908 17.4592 5.30758 18.6238C5.84135 18.8179 6.39937 19.012 6.98166 19.1818C6.83609 19.7641 6.71478 20.3464 6.61773 20.9044C6.10823 24.107 6.66626 26.3634 8.21903 27.2368C8.68001 27.5037 9.18951 27.625 9.7718 27.625C11.4944 27.625 13.6537 26.3634 15.8131 24.2526C17.9966 26.3634 20.156 27.625 21.8543 27.625C22.4366 27.625 22.9461 27.5037 23.4071 27.2368C24.9599 26.3391 25.5179 24.0827 25.0084 20.9044C24.9113 20.3464 24.79 19.7641 24.6445 19.1818C25.2267 19.012 25.7848 18.8421 26.3185 18.6238C29.3513 17.4592 31.0011 15.8579 31.0011 14.0625C31.0011 12.2671 29.3513 10.6658 26.3185 9.50123ZM22.7278 2.1013C23.7225 2.68359 24.0622 4.47898 23.6497 7.0265C23.5769 7.536 23.4556 8.06977 23.31 8.6278C22.0484 8.33665 20.714 8.14255 19.3068 8.02124C18.4819 6.85666 17.6327 5.81339 16.7835 4.86717C18.5789 3.09604 20.3986 1.88294 21.8786 1.88294C22.194 1.88294 22.4851 1.95572 22.7278 2.1013ZM20.0104 16.4887C19.5737 17.2651 19.0642 18.0415 18.5304 18.8179C17.6327 18.8907 16.735 18.9149 15.8131 18.9149C14.8668 18.9149 13.9691 18.8907 13.0957 18.8179C12.5619 18.0415 12.0767 17.2651 11.64 16.4887C11.179 15.6881 10.7423 14.8631 10.3541 14.0625C10.7423 13.2619 11.179 12.4369 11.64 11.6363C12.0767 10.8599 12.5862 10.0835 13.12 9.30713C14.0177 9.23435 14.9154 9.21008 15.8373 9.21008C16.7835 9.21008 17.6812 9.23435 18.5547 9.30713C19.0884 10.0835 19.5737 10.8599 20.0104 11.6363C20.4714 12.4369 20.9081 13.2619 21.2963 14.0625C20.8838 14.8631 20.4714 15.6638 20.0104 16.4887ZM22.0241 15.6881C22.3881 16.5372 22.6792 17.3621 22.9461 18.1871C22.1212 18.3811 21.2478 18.5267 20.3258 18.648C20.6169 18.1871 20.9324 17.7018 21.1992 17.1923C21.4904 16.6828 21.7573 16.1733 22.0241 15.6881ZM15.8131 22.2631C15.2308 21.6323 14.6727 20.9529 14.139 20.2493C14.697 20.2736 15.255 20.2979 15.8131 20.2979C16.3711 20.2979 16.9291 20.2736 17.4871 20.2493C16.9534 20.9529 16.3953 21.6323 15.8131 22.2631ZM11.3003 18.6238C10.3784 18.5025 9.50492 18.3569 8.68001 18.1628C8.94689 17.3621 9.23804 16.513 9.60197 15.6638C9.86885 16.149 10.1357 16.6585 10.4269 17.1438C10.718 17.6775 11.0092 18.1385 11.3003 18.6238ZM9.60197 12.4369C9.23804 11.5878 8.94689 10.7629 8.68001 9.93795C9.50492 9.74385 10.3784 9.59828 11.3003 9.47697C11.0092 9.93795 10.6938 10.4232 10.4269 10.9327C10.1357 11.4422 9.86885 11.9517 9.60197 12.4369ZM15.8131 5.86192C16.3953 6.49273 16.9534 7.17207 17.4871 7.87567C16.9291 7.85141 16.3711 7.82715 15.8131 7.82715C15.255 7.82715 14.697 7.85141 14.139 7.87567C14.6727 7.17207 15.2308 6.49273 15.8131 5.86192ZM21.1992 10.957L20.3258 9.50123C21.2478 9.62254 22.1212 9.76811 22.9461 9.96221C22.6792 10.7629 22.3881 11.612 22.0241 12.4612C21.7573 11.9517 21.4904 11.4422 21.1992 10.957ZM7.97641 7.0265C7.56395 4.47898 7.90362 2.68359 8.89837 2.1013C9.14099 1.95572 9.43213 1.88294 9.74754 1.88294C11.2033 1.88294 13.0229 3.07178 14.8426 4.86717C13.9934 5.78913 13.1442 6.85666 12.3193 8.02124C10.9121 8.14255 9.57771 8.36091 8.31608 8.6278C8.17051 8.06977 8.07346 7.536 7.97641 7.0265ZM1.98368 14.0625C1.98368 12.9222 3.36661 11.7091 5.79282 10.8114C6.27806 10.6173 6.81183 10.4475 7.34559 10.3019C7.73379 11.515 8.21903 12.8009 8.80132 14.0868C8.21903 15.3727 7.70953 16.6343 7.34559 17.8474C3.99743 16.8769 1.98368 15.4212 1.98368 14.0625ZM8.89837 26.0237C7.90362 25.4414 7.56395 23.646 7.97641 21.0985C8.0492 20.589 8.17051 20.0552 8.31608 19.4972C9.57771 19.7884 10.9121 19.9824 12.3193 20.1038C13.1442 21.2683 13.9934 22.3116 14.8426 23.2578C13.0472 25.029 11.2275 26.2421 9.74754 26.2421C9.43213 26.2421 9.14099 26.1693 8.89837 26.0237ZM23.6497 21.0985C24.0622 23.646 23.7225 25.4414 22.7278 26.0237C22.4851 26.1693 22.194 26.2421 21.8786 26.2421C20.4229 26.2421 18.6032 25.0532 16.7835 23.2578C17.6327 22.3359 18.4819 21.2683 19.3068 20.1038C20.714 19.9824 22.0484 19.7641 23.31 19.4972C23.4556 20.0552 23.5527 20.589 23.6497 21.0985ZM25.8333 17.3136C25.3481 17.5077 24.8143 17.6775 24.2805 17.8231C23.8923 16.61 23.4071 15.3241 22.8248 14.0382C23.4071 12.7523 23.9166 11.4907 24.2805 10.2776C27.6287 11.2481 29.6424 12.7038 29.6424 14.0625C29.6424 15.2028 28.2352 16.4159 25.8333 17.3136Z" fill="#8C4A0F"/>
</svg>
