<svg width="38" height="38" viewBox="0 0 38 38" fill="none" xmlns="http://www.w3.org/2000/svg">
<path d="M17.2357 38C17.2357 37.2645 17.4935 36.6393 18.0091 36.1245C18.5247 35.6096 19.1508 35.3522 19.8874 35.3522V25.423C19.4454 25.3053 19.033 25.1509 18.6499 24.9597C18.2669 24.7684 17.9134 24.511 17.5893 24.1874L13.7002 26.6145C13.2877 26.8793 12.8384 27.0411 12.3523 27.1C11.8661 27.1588 11.3726 27.1147 10.8718 26.9676L2.91681 24.717C2.06239 24.4816 1.36265 24.0035 0.817592 23.2827C0.272531 22.562 0 21.7455 0 20.8335C0 19.7156 0.390382 18.7668 1.17115 17.9872C1.95191 17.2075 2.90208 16.8177 4.02167 16.8177H17.3241C17.6187 16.4941 17.9428 16.2146 18.2964 15.9793C18.6499 15.7439 19.033 15.5527 19.4454 15.4056V9.35981C19.4454 8.85967 19.5412 8.38895 19.7327 7.94766C19.9242 7.50636 20.1967 7.1239 20.5503 6.80028L26.6049 1.15168C27.2825 0.504442 28.0707 0.12934 28.9693 0.0263702C29.8679 -0.0765992 30.7002 0.121985 31.4662 0.622122C32.409 1.21052 33.0204 2.04163 33.3003 3.11545C33.5802 4.18927 33.4255 5.1969 32.8363 6.13834L25.7652 17.7003C26.0009 18.0828 26.1703 18.48 26.2734 18.8918C26.3765 19.3037 26.4428 19.7303 26.4723 20.1716L31.2453 21.319C31.7461 21.4366 32.1807 21.6426 32.549 21.9368C32.9173 22.231 33.2193 22.584 33.455 22.9959L37.4766 30.2332C37.9186 31.0275 38.0806 31.866 37.9628 32.7486C37.8449 33.6312 37.4619 34.3961 36.8137 35.0433C36.0182 35.8376 35.0681 36.2348 33.9632 36.2348C32.8584 36.2348 31.9082 35.8376 31.1127 35.0433L22.539 26.4821V35.3522C23.2756 35.3522 23.9017 35.6096 24.4173 36.1245C24.9329 36.6393 25.1907 37.2645 25.1907 38H17.2357ZM5.3033 5.7853V3.13752H15.9099V5.7853H5.3033ZM22.0971 8.96264V15.1849C22.4212 15.2438 22.7379 15.332 23.0473 15.4497C23.3566 15.5674 23.6439 15.6998 23.909 15.8469L30.5824 4.72619C30.7886 4.40257 30.8402 4.04953 30.737 3.66707C30.6339 3.28462 30.4056 3.00513 30.052 2.82861C29.7869 2.68151 29.4996 2.63002 29.1902 2.67415C28.8809 2.71828 28.6231 2.84332 28.4168 3.04926L22.0971 8.96264ZM0 12.8461V10.1983H8.83883V12.8461H0ZM21.2132 22.9959C21.9792 22.9959 22.6127 22.7385 23.1135 22.2236C23.6144 21.7088 23.8648 21.0836 23.8648 20.3481C23.8648 19.5832 23.6144 18.9507 23.1135 18.4505C22.6127 17.9504 21.9792 17.7003 21.2132 17.7003C20.4766 17.7003 19.8505 17.9504 19.3349 18.4505C18.8193 18.9507 18.5615 19.5832 18.5615 20.3481C18.5615 21.0836 18.8193 21.7088 19.3349 22.2236C19.8505 22.7385 20.4766 22.9959 21.2132 22.9959ZM12.0208 24.5846L16.2193 22.025C16.0719 21.6132 15.9909 21.1866 15.9762 20.7453C15.9615 20.304 15.9836 19.8774 16.0425 19.4655H4.02167C3.63865 19.4655 3.31456 19.5979 3.0494 19.8627C2.78423 20.1275 2.65165 20.4511 2.65165 20.8335C2.65165 21.1572 2.74004 21.4366 2.91681 21.672C3.09359 21.9074 3.32929 22.0692 3.62392 22.1574L12.0208 24.5846ZM30.9801 23.9226L25.8978 22.7752C25.721 23.1283 25.5 23.4593 25.2349 23.7682C24.9697 24.0771 24.6751 24.3492 24.351 24.5846L33.013 33.1899C33.2782 33.4546 33.6023 33.587 33.9853 33.587C34.3683 33.587 34.6924 33.4546 34.9576 33.1899C35.1933 32.9545 35.3332 32.6897 35.3774 32.3955C35.4216 32.1013 35.3701 31.8218 35.2227 31.5571L30.9801 23.9226ZM3.53553 34.0283V31.3805H12.3744V34.0283H3.53553Z" fill="#8C4A0F"/>
</svg>
